<?xml version="1.0" encoding="utf-8"?>
<!-- Generator: Adobe Illustrator 19.0.0, SVG Export Plug-In . SVG Version: 6.00 Build 0)  -->
<svg version="1.1" id="Layer_1" xmlns="http://www.w3.org/2000/svg" xmlns:xlink="http://www.w3.org/1999/xlink" x="0px" y="0px"
	 width="24px" height="24px" viewBox="0 0 24 24" style="enable-background:new 0 0 24 24;" xml:space="preserve">
<style type="text/css">
	.st0{fill:#4D4D4D;}
</style>
<g id="Pages_2_x40_2x.png">
	<path id="XMLID_20_" class="st0" d="M17.5,1H10C8.9,1,8,1.9,8,3v1.5C8,4.8,8.2,5,8.5,5C8.8,5,9,4.8,9,4.5V3c0-0.6,0.4-1,1-1h6v3
		c0,0.6,0.4,1,1,1h3v10c0,0.6-0.4,1-1,1h-1.5c-0.3,0-0.5,0.2-0.5,0.5c0,0.3,0.2,0.5,0.5,0.5H19c1.1,0,2-0.9,2-2V5L17.5,1z M17,5V2.1
		L19.6,5H17z M5,6C3.9,6,3,6.9,3,8v13c0,1.1,0.9,2,2,2h9c1.1,0,2-0.9,2-2V10l-3.5-4H5z M15,21c0,0.6-0.4,1-1,1H5c-0.6,0-1-0.4-1-1V8
		c0-0.6,0.4-1,1-1h6v3c0,0.6,0.4,1,1,1h3V21z M12,10V7.1l2.6,2.9H12z"/>
</g>
</svg>
